<?xml version="1.0" encoding="utf-8"?>
<!-- Generator: Adobe Illustrator 18.0.0, SVG Export Plug-In . SVG Version: 6.00 Build 0)  -->
<!DOCTYPE svg PUBLIC "-//W3C//DTD SVG 1.1//EN" "http://www.w3.org/Graphics/SVG/1.1/DTD/svg11.dtd">
<svg version="1.1" id="Слой_1" xmlns="http://www.w3.org/2000/svg" xmlns:xlink="http://www.w3.org/1999/xlink" x="0px" y="0px"
	 viewBox="0 0 74 74" enable-background="new 0 0 74 74" xml:space="preserve">
<g>
	<linearGradient id="SVGID_1_" gradientUnits="userSpaceOnUse" x1="23.7867" y1="23.8098" x2="44.4389" y2="23.8098">
		<stop  offset="2.090993e-02" style="stop-color:#6655D3"/>
		<stop  offset="0.2579" style="stop-color:#6361D8"/>
		<stop  offset="1" style="stop-color:#5C81E6"/>
	</linearGradient>
	<polygon fill="url(#SVGID_1_)" points="34.7,11.6 44.4,30.2 40.8,36 34.4,24.1 27.3,35.6 23.8,29.7 	"/>
	<linearGradient id="SVGID_2_" gradientUnits="userSpaceOnUse" x1="34.6562" y1="20.9565" x2="51.187" y2="20.9565">
		<stop  offset="0" style="stop-color:#91BEFC"/>
		<stop  offset="1" style="stop-color:#69A0F4"/>
	</linearGradient>
	<polygon fill="url(#SVGID_2_)" points="44.4,30.2 51.2,30.3 41.6,11.8 34.7,11.6 	"/>
	<linearGradient id="SVGID_3_" gradientUnits="userSpaceOnUse" x1="27.3193" y1="29.9409" x2="37.6793" y2="29.9409">
		<stop  offset="0" style="stop-color:#6655D3"/>
		<stop  offset="1" style="stop-color:#6628D3"/>
	</linearGradient>
	<polygon fill="url(#SVGID_3_)" points="27.3,35.6 34.3,35.8 37.7,30.2 34.4,24.1 	"/>
	<linearGradient id="SVGID_4_" gradientUnits="userSpaceOnUse" x1="39.2418" y1="41.7106" x2="62" y2="41.7106">
		<stop  offset="0" style="stop-color:#91BEFC"/>
		<stop  offset="1" style="stop-color:#69A0F4"/>
	</linearGradient>
	<polygon fill="url(#SVGID_4_)" points="46.2,33.2 52.9,33.1 62,50.3 42.4,50.1 39.2,44.5 52.4,44.5 	"/>
	<linearGradient id="SVGID_5_" gradientUnits="userSpaceOnUse" x1="39.1399" y1="53.0387" x2="62" y2="53.0387">
		<stop  offset="2.090993e-02" style="stop-color:#6655D3"/>
		<stop  offset="0.2579" style="stop-color:#6361D8"/>
		<stop  offset="1" style="stop-color:#5C81E6"/>
	</linearGradient>
	<polygon fill="url(#SVGID_5_)" points="42.4,50.1 39.1,56 58.8,56 62,50.3 	"/>
	<linearGradient id="SVGID_6_" gradientUnits="userSpaceOnUse" x1="42.5027" y1="38.8404" x2="52.4212" y2="38.8404">
		<stop  offset="2.090993e-02" style="stop-color:#6655D3"/>
		<stop  offset="0.2579" style="stop-color:#6361D8"/>
		<stop  offset="1" style="stop-color:#5C81E6"/>
	</linearGradient>
	<polygon fill="url(#SVGID_6_)" points="42.5,39 46.2,33.2 52.4,44.5 45.6,44.5 	"/>
	<linearGradient id="SVGID_7_" gradientUnits="userSpaceOnUse" x1="40.8157" y1="33.2074" x2="51.187" y2="33.2074">
		<stop  offset="0" style="stop-color:#6655D3"/>
		<stop  offset="1" style="stop-color:#6628D3"/>
	</linearGradient>
	<polygon fill="url(#SVGID_7_)" points="40.8,36 44.4,30.2 51.2,30.3 49.8,33.1 46.2,33.2 44.3,36.2 	"/>
	<linearGradient id="SVGID_8_" gradientUnits="userSpaceOnUse" x1="15.6345" y1="47.553" x2="39.0041" y2="47.553">
		<stop  offset="2.090993e-02" style="stop-color:#6655D3"/>
		<stop  offset="0.2579" style="stop-color:#6361D8"/>
		<stop  offset="1" style="stop-color:#5C81E6"/>
	</linearGradient>
	<polygon fill="url(#SVGID_8_)" points="39,50.6 25.9,50.5 32.8,38.7 25.8,38.8 15.6,56.4 35.5,56.4 	"/>
	<linearGradient id="SVGID_9_" gradientUnits="userSpaceOnUse" x1="12" y1="44.5978" x2="25.7568" y2="44.5978">
		<stop  offset="0" style="stop-color:#6655D3"/>
		<stop  offset="1" style="stop-color:#6628D3"/>
	</linearGradient>
	<polygon fill="url(#SVGID_9_)" points="22.2,32.8 25.8,38.8 15.6,56.4 12,50.5 	"/>
	<linearGradient id="SVGID_10_" gradientUnits="userSpaceOnUse" x1="25.8927" y1="47.7058" x2="39.0041" y2="47.7058">
		<stop  offset="0" style="stop-color:#91BEFC"/>
		<stop  offset="1" style="stop-color:#69A0F4"/>
	</linearGradient>
	<polygon fill="url(#SVGID_10_)" points="39,50.6 35.8,44.8 29.2,44.8 25.9,50.5 	"/>
	<linearGradient id="SVGID_11_" gradientUnits="userSpaceOnUse" x1="22.2242" y1="35.6644" x2="32.822" y2="35.6644">
		<stop  offset="0" style="stop-color:#91BEFC"/>
		<stop  offset="1" style="stop-color:#69A0F4"/>
	</linearGradient>
	<polygon fill="url(#SVGID_11_)" points="32.8,38.7 25.8,38.8 22.2,32.8 25.5,32.6 27.3,35.6 31.1,35.8 	"/>
	<linearGradient id="SVGID_12_" gradientUnits="userSpaceOnUse" x1="37.3057" y1="50.2194" x2="42.4348" y2="50.2194">
		<stop  offset="0" style="stop-color:#6655D3"/>
		<stop  offset="1" style="stop-color:#6628D3"/>
	</linearGradient>
	<polygon fill="url(#SVGID_12_)" points="39.2,44.5 42.4,50.1 39.1,56 37.4,53.2 39,50.6 37.3,47.5 	"/>
</g>
</svg>
