<svg width="540" height="110" viewBox="30 0 540 110" xmlns="http://www.w3.org/2000/svg">
<rect x="30" width="100%" height="100%" fill="white"></rect>
<defs>
        <style>
            .svgText {
                font-family: Veranda, sans-serif;
                fill: black;
            }
            .svgDataText{
                font-family: "Roboto Mono", monospace;
                fill: black;
            }
            .svgAddressText{
                font-family: "Roboto Mono", monospace;
                fill: black;
            }
            .svgAddressTextRed{
                font-family: "Roboto Mono", monospace;
                fill: #dc143c;
            }

            .svgText2 {
                font-family: Veranda, sans-serif;
                fill: black;
                font-size: smaller;
            }

            .svgTextRed {
                font-family: Veranda, sans-serif;
                fill: red;
            }

            #arrowhead polyline {
                stroke: black;
                stroke-width: 2;
                fill: black;
            }

            #arrowheadRed polyline {
                stroke: red;
                stroke-width: 2;
                fill: red;
            }
        </style>
        <marker id="arrowhead" markerWidth="8" markerHeight="14" refX="0" refY="7" orient="auto" markerUnits="userSpaceOnUse">
            <line x1="0.5" y1="0.5" x2="7.5" y2="7.5" stroke="black" stroke-width="1.5"/>
            <line x1="0" y1="7" x2="6" y2="7" stroke="black" stroke-width="1"/>
            <line x1="0.5" y1="13.5" x2="7.5" y2="6.5" stroke="black" stroke-width="1.5"/>
        </marker>
        <marker id="arrowheadRed" markerWidth="8" markerHeight="14" refX="0" refY="7" orient="auto" markerUnits="userSpaceOnUse">
            <line x1="0.5" y1="0.5" x2="7.5" y2="7.5" stroke="#dc143c" stroke-width="1.5"/>
            <line x1="0" y1="7" x2="6" y2="7" stroke="#dc143c" stroke-width="1"/>
            <line x1="0.5" y1="13.5" x2="7.5" y2="6.5" stroke="#dc143c" stroke-width="1.5"/>
        </marker>
    </defs>
    <!-- First node -->
    <path d="M 70 25
              L 140 25
              L 140 53 
              L 70 53 Z"
          stroke="black" stroke-width="1" fill="#E0E0E0">
    </path>
    <line x1="70" y1="40" x2="140" y2="40" stroke="black" stroke-width="1"></line>
    <line x1="75" y1="40" x2="135" y2="40" stroke="#E0E0E0" stroke-width="3"></line>
    <text x="85" y="45" class="svgDataText">data</text>
    <path d="M 70 53 
              L 140 53 
              L 140 81 
              L 70 81 Z"
          stroke="black" stroke-width="1" fill="#FCFC62">
    </path>
    <line x1="70" y1="68" x2="140" y2="68" stroke="black" stroke-width="1"></line>
    <line x1="75" y1="68" x2="135" y2="68" stroke="#FCFC62" stroke-width="3"></line>
    <text x="85" y="72" class="svgAddressText">next</text>
    <path id="arw1" d="M140,68 C170,68 140,33 170,33" stroke="black" stroke-width="1" fill="none"
          marker-end="url(#arrowhead)"></path>
    <!-- Node 2 -->
    <path d="M 180 25
              L 250 25
              L 250 53 
              L 180 53 Z"
          stroke="black" stroke-width="1" fill="#E0E0E0">
    </path>
    <line x1="180" y1="40" x2="250" y2="40" stroke="black" stroke-width="1"></line>
    <line x1="185" y1="40" x2="245" y2="40" stroke="#E0E0E0" stroke-width="3"></line>
    <text x="197" y="45" class="svgDataText">data</text>
    <path d="M 180 53 
              L 250 53 
              L 250 82 
              L 180 82 Z"
          stroke="black" stroke-width="1" fill="#FCFC62">
    </path>
    <line x1="180" y1="68" x2="250" y2="68" stroke="black" stroke-width="1"></line>
    <line x1="185" y1="68" x2="245" y2="68" stroke="#FCFC62" stroke-width="3"></line>
    <text x="197" y="72" class="svgAddressText">next</text>
    <path id="arw2" d="M250,68 C280,68 250,33 280,33" stroke="black" stroke-width="1" fill="none"
          marker-end="url(#arrowhead)"></path>
    <!-- Node 3 -->
    <path d="M 290 25 
              L 360 25 
              L 360 53 
              L 290 53 Z"
          stroke="black" stroke-width="1" fill="#E0E0E0">
    </path>
    <line x1="290" y1="40" x2="360" y2="40" stroke="black" stroke-width="1"></line>
    <line x1="295" y1="40" x2="355" y2="40" stroke="#E0E0E0" stroke-width="3"></line>
    <text x="308" y="45" class="svgDataText">data</text>
    <path d="M 290 53 
              L 360 53 
              L 360 81 
              L 290 81 Z"
          stroke="black" stroke-width="1" fill="#FCFC62">
    </path>
    <line x1="290" y1="68" x2="360" y2="68" stroke="black" stroke-width="1"></line>
    <line x1="295" y1="68" x2="355" y2="68" stroke="#FCFC62" stroke-width="3"></line>
    <text x="308" y="72" class="svgAddressText">next</text>
    <path id="arw2" d="M360,68 C390,68 360,33 390,33" stroke="black" stroke-width="1" fill="none"
          marker-end="url(#arrowhead)"></path>
  <!-- Node 4 -->
<path d="M 400 25
          L 470 25
          L 470 53 
          L 400 53 Z"
    stroke="black" stroke-width="1" fill="#E0E0E0"></path>
<line x1="400" y1="40" x2="470" y2="40" stroke="black" stroke-width="1"></line>
<line x1="405" y1="40" x2="465" y2="40" stroke="#E0E0E0" stroke-width="3"></line>
<text x="415" y="45" class="svgDataText">data</text>
<path d="M 400 53 
          L 470 53 
          L 470 81 
          L 400 81 Z"
    stroke="black" stroke-width="1" fill="#FCFC62"></path>
<line x1="400" y1="68" x2="470" y2="68" stroke="black" stroke-width="1"></line>
<line x1="405" y1="68" x2="465" y2="68" stroke="#FCFC62" stroke-width="3"></line>
<text x="415" y="72" class="svgAddressText">next</text>
<line x1="472" y1="68" x2="495" y2="68" stroke="#dc143c" stroke-width="1" fill="none" stroke-dasharray="5,5" marker-end="url(#arrowheadRed)"></line>
<text x="510" y="72" class="svgAddressTextRed">null</text>
</svg>